<svg width="100" height="100" viewBox="0 0 100 100" fill="none" xmlns="http://www.w3.org/2000/svg">
<path d="M50.0002 8.33325C60.4222 19.7431 66.345 34.5501 66.6668 49.9999C66.345 65.4498 60.4222 80.2568 50.0002 91.6666M50.0002 8.33325C39.5782 19.7431 33.6554 34.5501 33.3335 49.9999C33.6554 65.4498 39.5782 80.2568 50.0002 91.6666M50.0002 8.33325C26.9883 8.33325 8.3335 26.9881 8.3335 49.9999C8.3335 73.0118 26.9883 91.6666 50.0002 91.6666M50.0002 8.33325C73.012 8.33325 91.6668 26.9881 91.6668 49.9999C91.6668 73.0118 73.012 91.6666 50.0002 91.6666M10.4169 37.4999H89.5836M10.4168 62.4999H89.5835" stroke="#FBEFE9" stroke-width="2" stroke-linecap="round" stroke-linejoin="round"/>
</svg>
