<svg width="80" height="80" viewBox="0 0 80 80" fill="none" xmlns="http://www.w3.org/2000/svg">
<path d="M43.3332 20L21.6726 24.3321C20.4626 24.5741 19.8576 24.6951 19.3649 24.9893C18.9294 25.2494 18.5589 25.6056 18.2818 26.0305C17.9684 26.5112 17.8236 27.111 17.5341 28.3105L6.6665 73.3333M6.6665 73.3333L51.6894 62.4657C52.8889 62.1762 53.4886 62.0314 53.9693 61.718C54.3943 61.4409 54.7504 61.0705 55.0105 60.6349C55.3047 60.1422 55.4257 59.5372 55.6677 58.3272L59.9998 36.6667M6.6665 73.3333L31.9532 48.0467M69.5619 26.2288L53.7711 10.4379C52.451 9.11783 51.791 8.4578 51.0299 8.21051C50.3604 7.99298 49.6393 7.99298 48.9698 8.21051C48.2087 8.4578 47.5486 9.11783 46.2286 10.4379L43.7711 12.8954C42.451 14.2155 41.791 14.8755 41.5437 15.6366C41.3262 16.3061 41.3262 17.0272 41.5437 17.6967C41.791 18.4578 42.451 19.1178 43.7711 20.4379L59.5619 36.2287C60.882 37.5488 61.542 38.2088 62.3031 38.4561C62.9726 38.6737 63.6937 38.6737 64.3632 38.4561C65.1243 38.2088 65.7843 37.5488 67.1044 36.2287L69.5619 33.7712C70.882 32.4512 71.542 31.7911 71.7893 31.03C72.0068 30.3606 72.0068 29.6394 71.7893 28.9699C71.542 28.2088 70.882 27.5488 69.5619 26.2288ZM36.6665 36.6667C40.3484 36.6667 43.3332 39.6514 43.3332 43.3333C43.3332 47.0152 40.3484 50 36.6665 50C32.9846 50 29.9998 47.0152 29.9998 43.3333C29.9998 39.6514 32.9846 36.6667 36.6665 36.6667Z" stroke="#0A0A0A" stroke-width="2" stroke-linecap="round" stroke-linejoin="round"/>
</svg>
